<?xml version="1.0" standalone="no"?>
<!DOCTYPE svg PUBLIC "-//W3C//DTD SVG 20010904//EN"
 "http://www.w3.org/TR/2001/REC-SVG-20010904/DTD/svg10.dtd">
<svg version="1.0" xmlns="http://www.w3.org/2000/svg"
 width="400.000000pt" height="400.000000pt" viewBox="0 0 400.000000 400.000000"
 preserveAspectRatio="xMidYMid meet">
<metadata>
Created by potrace 1.11, written by Peter Selinger 2001-2013
</metadata>
<g transform="translate(0.000000,400.000000) scale(0.100000,-0.100000)"
fill="#000000" stroke="none">
<path d="M391 2290 c-11 -7 -19 -35 -26 -100 -4 -30 -8 -57 -10 -60 -2 -3 -6
-25 -9 -50 -3 -25 -8 -54 -10 -65 -2 -11 -7 -40 -10 -65 -3 -25 -9 -58 -12
-75 -3 -16 -11 -67 -18 -113 l-12 -83 45 3 c46 3 46 3 48 43 5 63 7 65 73 65
57 0 60 -1 61 -25 1 -14 3 -29 4 -35 1 -5 3 -19 4 -30 1 -17 8 -20 52 -20 50
0 51 0 45 28 -3 15 -8 47 -12 72 -3 25 -8 52 -9 60 -2 8 -18 110 -36 225 -18
116 -35 213 -38 217 -7 8 -118 16 -130 8z m63 -155 c3 -17 8 -50 11 -75 4 -25
10 -69 16 -99 15 -89 15 -90 -32 -86 -22 2 -42 5 -44 7 -2 2 2 44 10 93 22
141 23 149 24 174 1 31 8 24 15 -14z"/>
<path d="M1010 2290 l-35 -5 0 -302 0 -303 47 0 48 0 1 38 c0 20 1 76 0 125
l0 87 33 0 c51 0 64 -27 64 -137 0 -50 3 -96 6 -102 4 -6 27 -11 51 -11 l43 0
-3 114 c-3 112 -9 139 -41 170 -14 15 -13 19 10 47 26 31 30 54 27 149 -2 57
-19 90 -56 111 -31 18 -132 28 -195 19z m143 -99 c14 -11 18 -143 5 -156 -10
-10 -78 -24 -82 -16 -5 8 -5 174 0 182 6 10 62 3 77 -10z"/>
<path d="M1699 2284 c-59 -30 -64 -50 -67 -278 -3 -177 -1 -216 13 -253 21
-55 60 -77 137 -77 50 0 62 4 88 29 34 33 48 76 48 152 l0 52 -44 -2 -45 -2
-3 -63 c-3 -67 -12 -82 -52 -82 -42 0 -46 18 -45 225 0 212 3 225 51 225 36 0
47 -20 49 -91 1 -36 1 -37 44 -35 l42 2 -1 60 c-2 70 -21 112 -61 135 -34 20
-119 22 -154 3z"/>
<path d="M2318 2292 c-18 -2 -28 -9 -29 -20 0 -25 0 -554 0 -574 1 -15 10 -18
49 -18 l47 0 0 126 c-1 138 -2 136 63 137 l37 1 3 -132 3 -132 49 0 50 0 0
304 c0 338 5 316 -67 308 l-33 -4 0 -130 0 -129 -52 3 -53 3 0 127 c1 140 1
138 -67 130z"/>
<path d="M3450 1988 l0 -308 130 0 c138 0 132 -2 132 50 0 11 0 25 -1 30 -1 6
-31 10 -78 8 l-78 -2 -3 93 -3 93 28 -2 c15 -1 45 -2 66 -1 l38 1 -3 43 -3 42
-62 0 -63 -1 0 86 0 87 79 -2 79 -2 4 44 c2 33 0 43 -12 43 -8 1 -68 2 -133 3
l-117 2 0 -307z"/>
<path d="M2971 1985 l1 -305 49 0 49 0 0 305 0 305 -50 0 -51 0 2 -305z"/>
</g>
</svg>
